<svg aria-hidden="true" style="width:0;height:0;position:absolute;overflow:hidden" xmlns="http://www.w3.org/2000/svg"><defs><symbol id="icon-cart" viewBox="0 0 25 32"><path d="M22.815 8.593h-4.444V7.112a5.93 5.93 0 0 0-5.926-5.926 5.93 5.93 0 0 0-5.926 5.926v1.481H2.075a1.482 1.482 0 0 0-1.482 1.482v16.296a4.444 4.444 0 0 0 4.445 4.445h14.815a4.444 4.444 0 0 0 4.445-4.445V10.075a1.482 1.482 0 0 0-1.481-1.482zM9.482 7.111a2.962 2.962 0 0 1 5.058-2.095c.556.556.868 1.309.868 2.095v1.481H9.482V7.111zM21.333 26.37a1.478 1.478 0 0 1-1.482 1.481H5.036a1.482 1.482 0 0 1-1.482-1.481V11.555h2.963v1.481a1.482 1.482 0 1 0 2.964 0v-1.481h5.926v1.481a1.482 1.482 0 1 0 2.964 0v-1.481h2.963V26.37z"/></symbol></defs></svg>